# Blender v2.77 (sub 0) OBJ File: 'wireframes.blend'
# www.blender.org
o BevelledCube_Cube.004
v -0.691000 -0.691000 1.000000
v -1.000000 -0.691000 0.691000
v -0.691000 -1.000000 0.691000
v -0.691000 0.691000 1.000000
v -0.691000 1.000000 0.691000
v -1.000000 0.691000 0.691000
v -0.691000 -0.691000 -1.000000
v -0.691000 -1.000000 -0.691000
v -1.000000 -0.691000 -0.691000
v -0.691000 1.000000 -0.691000
v -0.691000 0.691000 -1.000000
v -1.000000 0.691000 -0.691000
v 0.691000 -0.691000 1.000000
v 0.691000 -1.000000 0.691000
v 1.000000 -0.691000 0.691000
v 0.691000 1.000000 0.691000
v 0.691000 0.691000 1.000000
v 1.000000 0.691000 0.691000
v 1.000000 -0.691000 -0.691000
v 0.691000 -1.000000 -0.691000
v 0.691000 -0.691000 -1.000000
v 0.691000 1.000000 -0.691000
v 1.000000 0.691000 -0.691000
v 0.691000 0.691000 -1.000000
vn 0.0000 -1.0000 0.0000
vn 1.0000 0.0000 0.0000
vn 0.0000 1.0000 0.0000
vn 0.0000 0.0000 1.0000
vn 0.0000 0.0000 -1.0000
vn -0.5774 -0.5774 0.5774
vn -0.5774 0.5774 0.5774
vn -0.5774 -0.5774 -0.5774
vn -0.5774 0.5774 -0.5774
vn 0.5774 -0.5774 0.5774
vn 0.5774 0.5774 0.5774
vn 0.5774 -0.5774 -0.5774
vn 0.5774 0.5774 -0.5774
vn -0.7071 -0.0000 0.7071
vn -0.7071 0.7071 0.0000
vn -0.7071 0.0000 -0.7071
vn -0.7071 -0.7071 -0.0000
vn -0.0000 0.7071 -0.7071
vn 0.7071 0.0000 -0.7071
vn 0.0000 -0.7071 -0.7071
vn 0.7071 0.7071 -0.0000
vn 0.7071 0.0000 0.7071
vn 0.7071 -0.7071 0.0000
vn 0.0000 0.7071 0.7071
vn -0.0000 -0.7071 0.7071
vn -1.0000 0.0000 0.0000
s off
f 3//1 8//1 20//1 14//1
f 23//2 18//2 15//2 19//2
f 16//3 22//3 10//3 5//3
f 17//4 4//4 1//4 13//4
f 11//5 24//5 21//5 7//5
f 1//6 2//6 3//6
f 4//7 5//7 6//7
f 7//8 8//8 9//8
f 10//9 11//9 12//9
f 13//10 14//10 15//10
f 16//11 17//11 18//11
f 19//12 20//12 21//12
f 22//13 23//13 24//13
f 1//14 4//14 6//14 2//14
f 5//15 10//15 12//15 6//15
f 11//16 7//16 9//16 12//16
f 8//17 3//17 2//17 9//17
f 10//18 22//18 24//18 11//18
f 23//19 19//19 21//19 24//19
f 20//20 8//20 7//20 21//20
f 22//21 16//21 18//21 23//21
f 17//22 13//22 15//22 18//22
f 14//23 20//23 19//23 15//23
f 16//24 5//24 4//24 17//24
f 3//25 14//25 13//25 1//25
f 6//26 12//26 9//26 2//26
