# Blender v2.77 (sub 0) OBJ File: 'wireframes.blend'
# www.blender.org
o Chaosphere_Icosphere.001
v 0.036496 -0.974386 -0.025265
v 0.781152 -0.406846 0.777226
v -0.135678 -0.501723 0.993310
v -1.029221 -0.471336 -0.176674
v -0.428234 -0.552605 -0.969516
v 0.573712 -0.286408 -0.448413
v 0.162476 0.268194 0.818194
v -0.749008 0.450203 0.504896
v -0.678047 0.603831 -0.475793
v 0.273542 0.425239 -0.894301
v 0.961899 0.411687 0.266535
v 0.019586 0.968009 0.007663
v -0.236913 -0.662825 0.712825
v -0.129309 -0.847931 0.532381
v -0.121907 -1.028949 0.133948
v 0.222040 -1.149357 0.289426
v 0.438270 -0.969703 0.483416
v 0.716226 -0.620755 0.493092
v 0.403322 -0.445797 0.627098
v 0.141601 -0.497795 0.942488
v 0.056926 -0.465531 0.761798
v 0.621385 -0.707303 -0.361849
v 0.824631 -0.437595 -0.032190
v 0.881962 -0.597564 0.315311
v 0.397509 -0.923069 0.070269
v 0.410297 -0.813861 -0.287984
v 0.617312 -0.640085 -0.441185
v -0.921723 -0.513683 0.080812
v -0.553990 -0.772225 0.015415
v -0.138638 -1.000599 0.058752
v -0.485192 -0.497672 0.723720
v -0.798121 -0.552015 0.636586
v -0.723783 -0.695403 0.201528
v -0.079307 -0.562974 -0.863039
v -0.180651 -0.928120 -0.455784
v -0.044417 -0.917707 -0.330294
v -0.814176 -0.533669 -0.209154
v -0.839691 -0.586182 -0.473324
v -0.497588 -0.576726 -0.610891
v -0.030040 -0.502231 -0.864241
v 0.429699 -0.377903 -0.981674
v 0.534428 -0.502302 -0.678042
v 1.048755 0.042037 0.262240
v 1.140603 0.037148 0.172227
v 1.041847 -0.128319 0.560436
v 0.956096 -0.132979 -0.419604
v 0.803603 -0.008875 -0.393050
v 0.847942 0.399507 -0.082478
v 0.157058 0.317818 0.952551
v 0.190261 0.084110 1.016532
v -0.051991 -0.190878 1.108957
v 0.652988 -0.058832 0.621065
v 0.702550 -0.163522 0.942064
v 0.613279 0.222205 0.885049
v -0.855542 0.232402 0.182915
v -0.966660 0.173950 0.492603
v -0.948145 -0.252989 0.186316
v -0.574825 -0.230606 0.813283
v -0.596700 -0.003554 0.804589
v -0.732191 0.107163 0.769943
v -0.692190 0.157999 -0.532201
v -0.411981 0.209451 -0.897802
v -0.278585 -0.289107 -0.866014
v -0.860582 -0.443063 -0.160393
v -0.751522 0.058695 -0.216667
v -0.987369 0.222888 -0.543739
v 0.449868 0.228401 -0.917137
v 0.682129 -0.046954 -0.959029
v 0.731772 -0.167489 -0.782078
v -0.019911 -0.261194 -1.122697
v 0.115847 -0.097876 -1.114616
v 0.159623 0.043780 -0.796267
v 0.931055 0.515254 0.185308
v 0.715195 0.554081 0.606225
v 0.392821 0.584276 0.747400
v 0.012935 0.497415 0.646418
v -0.411997 0.522621 0.801041
v -0.621955 0.715832 0.575591
v -0.936322 0.536532 0.397036
v -0.825231 0.580412 -0.117701
v -0.764915 0.413353 -0.088922
v -0.517073 0.523776 -0.675121
v -0.005486 0.594545 -0.924095
v 0.058876 0.511163 -0.878900
v 0.375959 0.413408 -0.624943
v 0.440380 0.565942 -0.375182
v 0.838926 0.396646 -0.329342
v 0.272704 1.002234 0.463599
v 0.195568 0.890267 0.568943
v 0.342564 0.684804 0.623238
v 0.717384 0.676422 0.024446
v 0.590854 0.814150 -0.254160
v 0.261226 0.988442 -0.049653
v -0.269172 0.924012 0.144571
v -0.418430 0.841986 0.229433
v -0.609672 0.684342 0.527756
v -0.190855 0.936738 0.057431
v -0.498432 0.820533 -0.219387
v -0.663554 0.785375 -0.362966
v 0.103398 0.694237 -0.287525
v 0.089487 0.953353 -0.353765
v 0.390534 0.775626 -0.595707
v 0.310303 0.912281 -0.226820
v 0.800421 0.673276 -0.340350
v 0.374829 0.702569 -0.533199
v -0.128480 0.830936 -0.562100
v -0.109857 0.881693 -0.582101
v -0.370397 0.732359 -0.583600
v -0.464694 0.842195 -0.002734
v -0.767908 0.611393 -0.081683
v -0.499719 0.649020 0.210092
v 0.062643 0.956931 0.332808
v -0.395163 0.743769 0.583632
v -0.139634 0.558632 0.794064
v 0.384854 0.943735 0.369253
v 0.482893 0.625695 0.709792
v 0.669616 0.705656 0.245265
v 0.824597 0.237509 -0.390730
v 0.643954 0.017949 -0.513207
v 0.685230 0.244205 -0.675133
v -0.156727 0.282446 -0.992703
v -0.345295 -0.059140 -0.878433
v -0.445281 0.265486 -0.846252
v -0.962074 0.284454 -0.171953
v -0.873194 0.234221 -0.002407
v -0.896695 0.368670 0.165183
v -0.415214 0.379005 0.845303
v -0.377355 0.070849 0.923110
v 0.028124 0.306199 0.824591
v 0.652208 0.248206 0.730650
v 1.048994 0.008041 0.760080
v 0.744891 0.269212 0.348560
v 0.397385 -0.175200 -1.066269
v 0.266478 -0.376992 -0.815927
v 0.126307 -0.290368 -0.958739
v -0.785055 0.006977 -0.590234
v -0.633141 -0.264871 -0.748399
v -0.836353 -0.343604 -0.459055
v -0.827012 -0.018674 0.584087
v -1.063849 -0.286193 0.502793
v -0.693286 -0.401216 0.610159
v 0.380924 -0.029832 0.908744
v 0.156836 -0.294098 0.936092
v 0.465092 -0.241549 0.884780
v 0.727641 0.019830 -0.049932
v 0.970573 -0.272850 0.371410
v 0.806897 -0.297827 0.096017
v 0.365299 -0.534580 -0.398895
v 0.174825 -1.071907 -0.309780
v -0.020491 -0.733242 -0.772821
v -0.233642 -0.678382 -0.606868
v -0.381922 -0.890011 -0.232754
v -0.627651 -0.722753 -0.247077
v -0.634021 -0.770634 0.265889
v -0.312109 -0.935190 0.273549
v -0.636866 -0.620423 0.642658
v 0.689271 -0.611744 -0.332438
v 0.699200 -0.740290 0.219136
v 0.481362 -0.883466 -0.033184
v 0.044260 -0.854007 0.689179
v 0.263751 -0.842399 0.399338
v 0.339145 -0.722681 0.468385
vn -0.1206 -0.8961 -0.4271
vn 0.5500 -0.7228 0.4185
vn -0.0264 -0.9373 -0.3475
vn 0.0526 -0.9792 -0.1959
vn 0.1962 -0.9534 -0.2292
vn 0.8044 -0.4664 0.3681
vn 0.7340 -0.4014 0.5479
vn -0.8145 -0.3985 0.4217
vn -0.8402 0.5271 -0.1270
vn 0.8654 -0.4304 0.2566
vn 0.2169 0.4650 0.8583
vn -0.4718 -0.1930 0.8603
vn -0.0966 0.8623 -0.4971
vn -0.6111 0.5649 -0.5545
vn 0.3779 -0.9142 -0.1468
vn -0.5362 0.5367 0.6515
vn -0.7218 0.4784 -0.5002
vn -0.9767 0.1641 -0.1385
vn 0.1848 0.6010 -0.7776
vn 0.7990 0.5739 -0.1794
vn -0.2228 0.6824 -0.6962
vn 0.2868 0.9064 -0.3102
vn 0.5888 0.7982 0.1272
vn -0.5809 0.6770 -0.4519
vn -0.4610 0.1965 0.8654
vn 0.1715 0.6871 -0.7060
vn 0.2831 0.8182 -0.5004
vn 0.4088 0.7909 -0.4553
vn 0.7047 0.3677 0.6068
vn 0.9653 0.1431 0.2185
vn 0.1037 -0.0251 -0.9943
vn 0.2670 -0.6714 -0.6913
vn 0.9468 0.1007 -0.3057
vn 0.9816 -0.0543 0.1832
vn 0.9345 -0.0089 -0.3557
vn -0.2638 0.6688 -0.6951
vn -0.7231 0.1344 0.6776
vn 0.1759 0.8849 -0.4312
vn 0.5756 0.8137 -0.0810
vn -0.1978 0.9627 -0.1843
vn -0.7342 0.4645 0.4952
vn -0.2536 0.4337 0.8646
vn -0.3308 0.8840 -0.3303
vn -0.0018 0.9718 -0.2359
vn 0.1181 0.6530 -0.7481
vn 0.8247 0.5312 -0.1943
vn -0.3703 0.6527 -0.6610
vn -0.4168 0.5947 -0.6874
vn -0.4127 0.5934 -0.6910
vn -0.5920 0.4590 -0.6624
vn -0.1433 0.9895 0.0157
vn -0.3171 0.9473 -0.0453
vn -0.4652 0.8196 0.3344
vn -0.2980 0.9457 -0.1297
vn -0.4406 0.8933 0.0886
vn -0.6081 0.7937 0.0153
vn -0.6077 0.6353 0.4766
vn -0.9125 0.3662 0.1822
vn -0.8542 0.3939 -0.3395
vn -0.9373 -0.0014 -0.3486
vn 0.5164 0.0391 -0.8555
vn -0.6342 0.5831 0.5077
vn -0.2366 0.9711 0.0317
vn -0.3294 0.9191 -0.2162
vn -0.4316 0.1703 0.8858
vn -0.1472 0.9891 0.0075
vn -0.2885 0.8901 0.3529
vn -0.3222 0.9066 0.2726
vn -0.4252 -0.3885 0.8175
vn -0.4556 0.7560 0.4699
vn -0.2787 0.9206 0.2736
vn 0.0074 0.7552 0.6554
vn -0.4441 0.7652 0.4660
vn 0.2150 0.3904 0.8952
vn -0.0814 0.8228 -0.5625
vn -0.1113 0.7010 0.7044
vn -0.0747 0.7020 0.7083
vn 0.1266 -0.8632 0.4888
vn 0.4010 -0.6222 0.6724
vn -0.2190 0.4896 0.8440
vn -0.0901 0.9956 -0.0247
vn 0.6876 0.1865 0.7017
vn -0.5742 -0.2011 0.7936
vn 0.4396 0.8975 -0.0339
vn 0.4490 0.8928 -0.0372
vn 0.3914 0.7260 0.5654
vn 0.6850 0.6203 0.3821
vn 0.6555 0.7528 0.0601
vn 0.6820 0.7296 0.0509
vn -0.0791 0.7589 0.6464
vn 0.3983 -0.0338 0.9167
vn 0.4037 0.8606 0.3104
vn 0.6069 0.7573 0.2414
vn 0.5918 0.8058 0.0213
vn 0.1663 -0.5774 -0.7994
vn 0.0801 -0.9967 0.0086
vn 0.9959 -0.0846 -0.0310
vn 0.4940 0.7134 -0.4971
vn 0.9965 -0.0760 -0.0355
vn 0.2449 0.3297 -0.9118
vn 0.5961 -0.0432 -0.8017
vn 0.8040 -0.4360 -0.4043
vn 0.6162 0.7343 -0.2847
vn 0.3292 0.7657 -0.5525
vn 0.4925 0.7833 -0.3794
vn 0.9142 0.4049 0.0193
vn 0.9890 -0.1085 0.1005
vn 0.5698 0.5706 -0.5914
vn 0.3808 0.8217 -0.4240
vn 0.7090 0.6630 -0.2404
vn -0.1509 -0.2036 -0.9674
vn 0.6949 0.6166 -0.3699
vn -0.3981 0.3724 -0.8384
vn 0.5027 -0.0443 -0.8633
vn 0.5174 -0.0632 -0.8534
vn -0.4583 -0.0439 -0.8877
vn -0.4497 -0.0501 -0.8918
vn -0.4350 0.3893 -0.8120
vn -0.4447 0.4055 -0.7986
vn -0.6722 -0.2330 -0.7028
vn 0.3922 0.1627 0.9054
vn 0.9142 0.2500 0.3188
vn -0.7965 0.0782 -0.5995
vn -0.8018 0.1588 -0.5761
vn -0.7523 0.1061 -0.6502
vn -0.7810 0.6117 0.1258
vn -0.7054 -0.6900 0.1623
vn -0.8202 0.1154 -0.5603
vn -0.5124 0.8522 -0.1063
vn 0.3964 -0.0150 -0.9180
vn -0.7048 -0.6900 0.1650
vn -0.8206 -0.4964 0.2831
vn -0.9103 0.4072 0.0748
vn -0.9770 0.0542 -0.2062
vn -0.9625 0.0445 -0.2675
vn -0.9810 0.0831 -0.1751
vn -0.9825 0.0517 -0.1792
vn 0.8739 0.3124 0.3725
vn -0.9580 -0.2839 0.0418
vn -0.5917 -0.5632 0.5768
vn -0.8526 0.2926 0.4328
vn -0.2397 0.0104 0.9708
vn -0.4723 -0.0118 0.8814
vn -0.4863 0.3445 0.8030
vn -0.5929 0.2493 0.7658
vn -0.5092 0.1514 0.8473
vn 0.0867 0.2539 0.9633
vn 0.0923 0.2914 0.9521
vn 0.2900 0.6647 0.6886
vn -0.4926 0.0056 0.8703
vn -0.1561 0.4355 0.8866
vn -0.1451 0.5842 0.7985
vn -0.7056 0.0921 0.7026
vn -0.6320 0.5008 0.5914
vn 0.8735 0.4670 -0.1373
vn -0.1109 0.2935 0.9495
vn 0.9265 0.2553 0.2766
vn 0.2703 -0.9022 -0.3360
vn 0.7646 0.5757 0.2897
vn 0.4073 0.2709 0.8722
vn 0.2190 0.4667 0.8569
vn 0.5013 0.8488 0.1683
vn 0.9676 -0.1062 0.2289
vn 0.8289 -0.3252 0.4551
vn -0.0591 -0.8233 0.5645
vn 0.9583 -0.2507 0.1369
vn 0.5430 0.8303 0.1257
vn -0.5896 -0.5718 -0.5705
vn 0.4320 0.2484 0.8670
vn -0.9704 -0.2289 0.0766
vn -0.2945 -0.1544 -0.9431
vn 0.2068 0.3153 -0.9262
vn 0.3663 -0.7180 -0.5919
vn -0.5419 0.3524 -0.7630
vn 0.3068 0.8532 -0.4218
vn 0.4943 -0.7847 -0.3740
vn 0.1062 -0.8006 -0.5898
vn -0.0399 -0.6301 -0.7755
vn 0.6119 -0.4774 -0.6306
vn 0.2524 -0.4197 -0.8719
vn 0.2864 0.9172 0.2770
vn 0.2856 0.9177 0.2763
vn -0.1583 -0.3024 -0.9399
vn 0.5159 -0.6365 -0.5734
vn 0.2625 -0.7108 -0.6526
vn 0.0658 0.1232 -0.9902
vn -0.6804 0.5870 -0.4388
vn -0.3204 -0.1454 -0.9360
vn 0.1032 0.3009 -0.9481
vn -0.7031 -0.6931 0.1591
vn -0.6568 0.0698 -0.7508
vn -0.8004 -0.1038 -0.5904
vn -0.9836 0.1682 0.0650
vn -0.9774 0.2114 -0.0089
vn -0.3042 -0.4919 -0.8157
vn -0.3127 -0.4937 -0.8115
vn -0.8232 0.0446 -0.5660
vn -0.9955 0.0081 0.0945
vn -0.9116 -0.3622 -0.1946
vn 0.0051 0.4759 -0.8795
vn -0.9642 0.1308 0.2305
vn 0.6646 0.6537 0.3619
vn -0.9285 0.1890 -0.3196
vn -0.9155 0.3085 0.2582
vn -0.5782 -0.5077 0.6387
vn -0.4327 0.1112 0.8947
vn -0.2883 -0.0356 0.9569
vn -0.6730 -0.1865 0.7157
vn -0.8394 -0.0602 0.5401
vn -0.8308 -0.4333 -0.3492
vn -0.7282 -0.6781 0.0991
vn -0.1818 0.2910 0.9393
vn -0.3082 0.3680 0.8773
vn -0.5776 -0.4271 0.6956
vn -0.5557 -0.4259 0.7140
vn 0.1450 0.9300 -0.3377
vn 0.5963 0.2897 0.7486
vn 0.5554 -0.2197 0.8021
vn 0.1391 -0.0352 0.9897
vn -0.0462 0.1356 0.9897
vn 0.3745 -0.2244 0.8997
vn 0.1712 -0.0433 0.9843
vn -0.1747 -0.1791 0.9682
vn 0.3665 -0.8664 -0.3392
vn 0.1624 -0.7484 0.6430
vn -0.8969 0.0807 0.4347
vn 0.1610 0.0189 0.9868
vn 0.6126 -0.6843 0.3955
vn 0.8212 -0.5264 0.2204
vn -0.3796 0.2588 0.8882
vn 0.9248 0.2209 -0.3097
vn -0.0082 0.9980 -0.0626
vn 0.8832 -0.4683 0.0251
vn 0.6801 -0.2738 -0.6801
vn 0.9333 -0.2760 0.2297
vn 0.3850 -0.6390 -0.6659
vn 0.8602 -0.0195 -0.5095
vn 0.9318 0.3152 0.1799
vn 0.6201 0.6773 0.3960
vn 0.9557 -0.2288 -0.1854
vn 0.9433 -0.2136 -0.2539
vn 0.7117 0.5217 -0.4703
vn 0.2423 0.6723 -0.6995
vn 0.8643 -0.4945 0.0920
vn 0.1468 -0.1833 -0.9720
vn 0.9565 0.1124 -0.2693
vn -0.3100 -0.3936 -0.8654
vn 0.7347 -0.6558 -0.1737
vn -0.4111 -0.8431 -0.3466
vn -0.2838 -0.9177 -0.2781
vn 0.3924 -0.2842 -0.8748
vn 0.7384 -0.3567 -0.5723
vn 0.5668 -0.8092 -0.1549
vn -0.1349 -0.3694 -0.9194
vn -0.5122 -0.6543 0.5564
vn -0.4992 -0.6307 0.5942
vn -0.1036 -0.8231 -0.5583
vn -0.5813 -0.5286 -0.6186
vn 0.3814 -0.3265 -0.8648
vn 0.2765 -0.2427 -0.9298
vn -0.0087 -0.9976 -0.0688
vn -0.6263 -0.4965 -0.6010
vn -0.0438 -0.9906 0.1297
vn -0.2965 -0.7911 -0.5350
vn -0.2545 -0.6876 -0.6800
vn -0.6920 -0.4755 -0.5432
vn -0.4403 -0.6955 -0.5679
vn -0.2156 -0.9122 -0.3486
vn -0.6757 -0.7078 0.2060
vn -0.1482 -0.9593 -0.2403
vn -0.4865 -0.8704 0.0758
vn -0.5628 -0.8266 0.0021
vn -0.5743 -0.8186 0.0069
vn -0.7162 -0.6624 -0.2200
vn -0.2836 -0.9581 -0.0392
vn 0.7250 0.6609 -0.1940
vn -0.5870 -0.7887 -0.1825
vn -0.4697 -0.8756 -0.1127
vn 0.7401 0.5390 -0.4021
vn -0.6865 -0.7173 0.1191
vn -0.4482 -0.8833 -0.1376
vn -0.4358 -0.8372 0.3305
vn -0.3780 -0.8609 0.3404
vn -0.1899 -0.3668 0.9107
vn -0.5419 -0.8191 -0.1882
vn -0.1458 -0.9017 0.4070
vn -0.2722 -0.8372 0.4744
vn -0.1916 -0.7399 0.6448
vn -0.1980 -0.3579 0.9125
vn -0.4411 -0.7002 0.5614
vn 0.9909 0.1233 0.0536
vn -0.8202 0.5708 0.0387
vn 0.6855 -0.6118 -0.3947
vn -0.7976 0.4394 0.4132
vn 0.5622 -0.8113 -0.1606
vn 0.8759 -0.4662 -0.1244
vn 0.6765 -0.7144 -0.1787
vn 0.5103 -0.7827 -0.3562
vn 0.0959 -0.9531 -0.2871
vn 0.4676 -0.8204 0.3289
vn 0.7601 -0.6116 0.2196
vn 0.6109 -0.7876 -0.0805
vn 0.6725 -0.7371 -0.0670
vn -0.7746 -0.0118 -0.6323
vn 0.2635 -0.7687 -0.5828
vn 0.5001 -0.8165 0.2884
vn -0.4636 -0.7418 0.4845
vn 0.1518 -0.8988 0.4112
vn -0.0413 -0.1823 0.9824
vn -0.9077 -0.0483 0.4168
vn 0.0007 -0.9992 -0.0395
vn 0.6203 -0.6467 0.4439
vn 0.6431 -0.5527 0.5301
vn 0.7178 -0.4640 0.5192
vn -0.4685 -0.2407 0.8500
vn -0.5469 -0.2154 0.8090
vn -0.5194 -0.1573 0.8399
vn -0.0737 0.0311 0.9968
vn 0.0817 -0.5098 0.8564
vn -0.1659 -0.7693 0.6170
s off
f 1//1 16//1 15//1
f 2//2 18//2 24//2
f 1//3 15//3 30//3
f 1//4 30//4 36//4
f 1//5 36//5 25//5
f 2//6 24//6 45//6
f 3//7 21//7 51//7
f 4//8 33//8 57//8
f 5//9 39//9 63//9
f 6//10 42//10 69//10
f 2//11 45//11 52//11
f 3//12 51//12 58//12
f 4//13 57//13 64//13
f 5//14 63//14 70//14
f 6//15 69//15 46//15
f 7//16 75//16 90//16
f 8//17 78//17 96//17
f 9//18 81//18 99//18
f 10//19 84//19 102//19
f 11//20 87//20 91//20
f 93//21 100//21 12//21
f 92//22 103//22 93//22
f 91//23 104//23 92//23
f 93//24 103//24 100//24
f 103//25 101//25 100//25
f 92//26 104//26 103//26
f 104//27 105//27 103//27
f 103//28 105//28 101//28
f 105//29 102//29 101//29
f 91//30 87//30 104//30
f 87//31 86//31 104//31
f 104//32 86//32 105//32
f 86//33 85//33 105//33
f 105//34 85//34 102//34
f 85//35 10//35 102//35
f 100//36 97//36 12//36
f 101//37 106//37 100//37
f 102//38 107//38 101//38
f 100//39 106//39 97//39
f 106//40 98//40 97//40
f 101//41 107//41 106//41
f 107//42 108//42 106//42
f 106//43 108//43 98//43
f 108//44 99//44 98//44
f 102//45 84//45 107//45
f 84//46 83//46 107//46
f 107//47 83//47 108//47
f 83//48 82//48 108//48
f 108//49 82//49 99//49
f 82//50 9//50 99//50
f 97//51 94//51 12//51
f 98//52 109//52 97//52
f 99//53 110//53 98//53
f 97//54 109//54 94//54
f 109//55 95//55 94//55
f 98//56 110//56 109//56
f 110//57 111//57 109//57
f 109//58 111//58 95//58
f 111//59 96//59 95//59
f 99//60 81//60 110//60
f 81//61 80//61 110//61
f 110//62 80//62 111//62
f 80//63 79//63 111//63
f 111//64 79//64 96//64
f 79//65 8//65 96//65
f 94//66 88//66 12//66
f 95//67 112//67 94//67
f 96//68 113//68 95//68
f 94//69 112//69 88//69
f 112//70 89//70 88//70
f 95//71 113//71 112//71
f 113//72 114//72 112//72
f 112//73 114//73 89//73
f 114//74 90//74 89//74
f 96//75 78//75 113//75
f 78//76 77//76 113//76
f 113//77 77//77 114//77
f 77//78 76//78 114//78
f 114//79 76//79 90//79
f 76//80 7//80 90//80
f 88//81 93//81 12//81
f 89//82 115//82 88//82
f 90//83 116//83 89//83
f 88//84 115//84 93//84
f 115//85 92//85 93//85
f 89//86 116//86 115//86
f 116//87 117//87 115//87
f 115//88 117//88 92//88
f 117//89 91//89 92//89
f 90//90 75//90 116//90
f 75//91 74//91 116//91
f 116//92 74//92 117//92
f 74//93 73//93 117//93
f 117//94 73//94 91//94
f 73//95 11//95 91//95
f 48//96 87//96 11//96
f 47//97 118//97 48//97
f 46//98 119//98 47//98
f 48//99 118//99 87//99
f 118//100 86//100 87//100
f 47//101 119//101 118//101
f 119//102 120//102 118//102
f 118//103 120//103 86//103
f 120//104 85//104 86//104
f 46//105 69//105 119//105
f 69//106 68//106 119//106
f 119//107 68//107 120//107
f 68//108 67//108 120//108
f 120//109 67//109 85//109
f 67//110 10//110 85//110
f 72//111 84//111 10//111
f 71//112 121//112 72//112
f 70//113 122//113 71//113
f 72//114 121//114 84//114
f 121//115 83//115 84//115
f 71//116 122//116 121//116
f 122//117 123//117 121//117
f 121//118 123//118 83//118
f 123//119 82//119 83//119
f 70//120 63//120 122//120
f 63//121 62//121 122//121
f 122//122 62//122 123//122
f 62//123 61//123 123//123
f 123//124 61//124 82//124
f 61//125 9//125 82//125
f 66//126 81//126 9//126
f 65//127 124//127 66//127
f 64//128 125//128 65//128
f 66//129 124//129 81//129
f 124//130 80//130 81//130
f 65//131 125//131 124//131
f 125//132 126//132 124//132
f 124//133 126//133 80//133
f 126//134 79//134 80//134
f 64//135 57//135 125//135
f 57//136 56//136 125//136
f 125//137 56//137 126//137
f 56//138 55//138 126//138
f 126//139 55//139 79//139
f 55//140 8//140 79//140
f 60//141 78//141 8//141
f 59//142 127//142 60//142
f 58//143 128//143 59//143
f 60//144 127//144 78//144
f 127//145 77//145 78//145
f 59//146 128//146 127//146
f 128//147 129//147 127//147
f 127//148 129//148 77//148
f 129//149 76//149 77//149
f 58//150 51//150 128//150
f 51//151 50//151 128//151
f 128//152 50//152 129//152
f 50//153 49//153 129//153
f 129//154 49//154 76//154
f 49//155 7//155 76//155
f 54//156 75//156 7//156
f 53//157 130//157 54//157
f 52//158 131//158 53//158
f 54//159 130//159 75//159
f 130//160 74//160 75//160
f 53//161 131//161 130//161
f 131//162 132//162 130//162
f 130//163 132//163 74//163
f 132//164 73//164 74//164
f 52//165 45//165 131//165
f 45//166 44//166 131//166
f 131//167 44//167 132//167
f 44//168 43//168 132//168
f 132//169 43//169 73//169
f 43//170 11//170 73//170
f 67//171 72//171 10//171
f 68//172 133//172 67//172
f 69//173 134//173 68//173
f 67//174 133//174 72//174
f 133//175 71//175 72//175
f 68//176 134//176 133//176
f 134//177 135//177 133//177
f 133//178 135//178 71//178
f 135//179 70//179 71//179
f 69//180 42//180 134//180
f 42//181 41//181 134//181
f 134//182 41//182 135//182
f 41//183 40//183 135//183
f 135//184 40//184 70//184
f 40//185 5//185 70//185
f 61//186 66//186 9//186
f 62//187 136//187 61//187
f 63//188 137//188 62//188
f 61//189 136//189 66//189
f 136//190 65//190 66//190
f 62//191 137//191 136//191
f 137//192 138//192 136//192
f 136//193 138//193 65//193
f 138//194 64//194 65//194
f 63//195 39//195 137//195
f 39//196 38//196 137//196
f 137//197 38//197 138//197
f 38//198 37//198 138//198
f 138//199 37//199 64//199
f 37//200 4//200 64//200
f 55//201 60//201 8//201
f 56//202 139//202 55//202
f 57//203 140//203 56//203
f 55//204 139//204 60//204
f 139//205 59//205 60//205
f 56//206 140//206 139//206
f 140//207 141//207 139//207
f 139//208 141//208 59//208
f 141//209 58//209 59//209
f 57//210 33//210 140//210
f 33//211 32//211 140//211
f 140//212 32//212 141//212
f 32//213 31//213 141//213
f 141//214 31//214 58//214
f 31//215 3//215 58//215
f 49//216 54//216 7//216
f 50//217 142//217 49//217
f 51//218 143//218 50//218
f 49//219 142//219 54//219
f 142//220 53//220 54//220
f 50//221 143//221 142//221
f 143//222 144//222 142//222
f 142//223 144//223 53//223
f 144//224 52//224 53//224
f 51//225 21//225 143//225
f 21//226 20//226 143//226
f 143//227 20//227 144//227
f 20//228 19//228 144//228
f 144//229 19//229 52//229
f 19//230 2//230 52//230
f 43//231 48//231 11//231
f 44//232 145//232 43//232
f 45//233 146//233 44//233
f 43//234 145//234 48//234
f 145//235 47//235 48//235
f 44//236 146//236 145//236
f 146//237 147//237 145//237
f 145//238 147//238 47//238
f 147//239 46//239 47//239
f 45//240 24//240 146//240
f 24//241 23//241 146//241
f 146//242 23//242 147//242
f 23//243 22//243 147//243
f 147//244 22//244 46//244
f 22//245 6//245 46//245
f 27//246 42//246 6//246
f 26//247 148//247 27//247
f 25//248 149//248 26//248
f 27//249 148//249 42//249
f 148//250 41//250 42//250
f 26//251 149//251 148//251
f 149//252 150//252 148//252
f 148//253 150//253 41//253
f 150//254 40//254 41//254
f 25//255 36//255 149//255
f 36//256 35//256 149//256
f 149//257 35//257 150//257
f 35//258 34//258 150//258
f 150//259 34//259 40//259
f 34//260 5//260 40//260
f 34//261 39//261 5//261
f 35//262 151//262 34//262
f 36//263 152//263 35//263
f 34//264 151//264 39//264
f 151//265 38//265 39//265
f 35//266 152//266 151//266
f 152//267 153//267 151//267
f 151//268 153//268 38//268
f 153//269 37//269 38//269
f 36//270 30//270 152//270
f 30//271 29//271 152//271
f 152//272 29//272 153//272
f 29//273 28//273 153//273
f 153//274 28//274 37//274
f 28//275 4//275 37//275
f 28//276 33//276 4//276
f 29//277 154//277 28//277
f 30//278 155//278 29//278
f 28//279 154//279 33//279
f 154//280 32//280 33//280
f 29//281 155//281 154//281
f 155//282 156//282 154//282
f 154//283 156//283 32//283
f 156//284 31//284 32//284
f 30//285 15//285 155//285
f 15//286 14//286 155//286
f 155//287 14//287 156//287
f 14//288 13//288 156//288
f 156//289 13//289 31//289
f 13//290 3//290 31//290
f 22//291 27//291 6//291
f 23//292 157//292 22//292
f 24//293 158//293 23//293
f 22//294 157//294 27//294
f 157//295 26//295 27//295
f 23//296 158//296 157//296
f 158//297 159//297 157//297
f 157//298 159//298 26//298
f 159//299 25//299 26//299
f 24//300 18//300 158//300
f 18//301 17//301 158//301
f 158//302 17//302 159//302
f 17//303 16//303 159//303
f 159//304 16//304 25//304
f 16//305 1//305 25//305
f 13//306 21//306 3//306
f 14//307 160//307 13//307
f 15//308 161//308 14//308
f 13//309 160//309 21//309
f 160//310 20//310 21//310
f 14//311 161//311 160//311
f 161//312 162//312 160//312
f 160//313 162//313 20//313
f 162//314 19//314 20//314
f 15//315 16//315 161//315
f 16//316 17//316 161//316
f 161//317 17//317 162//317
f 17//318 18//318 162//318
f 162//319 18//319 19//319
f 18//320 2//320 19//320
