# Blender v2.77 (sub 0) OBJ File: 'wireframes.blend'
# www.blender.org
o ImplodedCube_Cube
v 1.000000 -1.000000 -1.000000
v 1.000000 -1.000000 1.000000
v -1.000000 -1.000000 1.000000
v -1.000000 -1.000000 -1.000000
v 1.000000 1.000000 -0.999999
v 0.999999 1.000000 1.000001
v -1.000000 1.000000 1.000000
v -1.000000 1.000000 -1.000000
v -0.000000 0.000000 0.000000
v -0.000000 0.000000 0.000000
v -0.000000 0.000000 0.000000
v -0.000000 0.000000 0.000000
v -0.000000 0.000000 0.000000
v -0.000000 0.000000 0.000000
vn -0.0000 0.7071 0.7071
vn 0.7071 -0.0000 0.7071
vn -0.7071 -0.0000 0.7071
vn -0.7071 -0.0000 -0.7071
vn -0.7071 -0.7071 -0.0000
vn 0.0000 -0.7071 -0.7071
vn 0.7071 -0.7071 0.0000
vn -0.0000 -0.7071 0.7071
vn 0.7071 0.7071 0.0000
vn 0.0000 0.7071 -0.7071
vn -0.7071 0.7071 -0.0000
vn 0.7071 0.0000 -0.7071
s off
f 5//1 8//1 10//1
f 1//2 5//2 11//2
f 2//3 6//3 12//3
f 3//4 7//4 13//4
f 5//4 1//4 14//4
f 1//5 2//5 9//5
f 2//6 3//6 9//6
f 3//7 4//7 9//7
f 4//8 1//8 9//8
f 8//9 7//9 10//9
f 7//10 6//10 10//10
f 6//11 5//11 10//11
f 5//7 6//7 11//7
f 6//12 2//12 11//12
f 2//9 1//9 11//9
f 6//8 7//8 12//8
f 7//2 3//2 12//2
f 3//1 2//1 12//1
f 7//5 8//5 13//5
f 8//3 4//3 13//3
f 4//11 3//11 13//11
f 1//10 4//10 14//10
f 4//12 8//12 14//12
f 8//6 5//6 14//6
