# Blender v2.77 (sub 0) OBJ File: 'wireframes.blend'
# www.blender.org
o MonoBird_Cube.005
v -1.000000 -1.000000 1.000000
v -1.000000 0.586022 1.000000
v -1.000000 -1.000000 -1.000000
v -1.000000 0.586022 -1.000000
v 1.000000 -1.000000 1.000000
v 1.000000 0.586022 1.000000
v 1.000000 -1.000000 -1.000000
v 1.000000 0.586022 -1.000000
v -0.267231 -0.988093 -0.267231
v -0.267231 -0.988093 0.267231
v 0.267231 -0.988093 -0.267231
v 0.267231 -0.988093 0.267231
v -0.267231 -3.771630 -0.267231
v -0.267231 -3.771630 0.267231
v 0.267231 -3.771630 -0.267231
v 0.267231 -3.771630 0.267231
v -0.710095 -3.723561 -1.065850
v -0.477801 -3.723561 0.445774
v 0.710095 -3.723561 -1.065850
v 0.477801 -3.723561 0.445774
v -0.710095 -3.964481 -1.065850
v -0.477801 -3.964481 0.445774
v 0.710095 -3.964481 -1.065850
v 0.477801 -3.964481 0.445774
v -0.252051 -0.585885 0.993164
v -0.252051 -0.186126 0.993164
v 0.252051 -0.186126 0.993164
v 0.252051 -0.585885 0.993164
v -0.723282 -0.649020 2.629105
v -0.723282 0.498121 2.629105
v 0.723282 0.498121 2.629105
v 0.723282 -0.649020 2.629105
v -0.344071 0.607474 0.063796
v -0.344071 0.607474 -0.624346
v 0.344071 0.607474 -0.624346
v 0.344071 0.607474 0.063796
v -0.344071 2.576936 0.063796
v -0.344071 2.576936 -0.624346
v 0.344071 2.576936 -0.624346
v 0.344071 2.576936 0.063796
v -0.718908 2.593093 0.438633
v -0.718908 2.593093 -0.999183
v 0.718908 2.593093 -0.999183
v 0.718908 2.593093 0.438633
v -0.718908 3.696357 0.438633
v -0.718908 3.696357 -0.999183
v 0.718908 3.696357 -0.999183
v 0.718908 3.696357 0.438633
v -0.517783 2.732060 -0.999183
v 0.517783 2.732060 -0.999183
v -0.517783 3.217807 -0.999183
v 0.517783 3.217807 -0.999183
v -0.517783 2.732060 -2.348308
v 0.517783 2.732060 -2.348308
v -0.517783 3.217807 -2.348308
v 0.517783 3.217807 -2.348308
v 0.267231 -2.321879 0.691329
v -0.267231 -2.321879 0.691329
v 0.267231 -2.321879 1.225791
v -0.267231 -2.321879 1.225791
v -0.713984 2.858894 0.092230
v -0.713984 2.858894 -0.652781
v -0.713984 3.430556 0.092230
v -0.713984 3.430556 -0.652781
v -0.941865 2.858894 0.092230
v -0.941865 2.858894 -0.652781
v -0.941865 3.430556 0.092230
v -0.941865 3.430556 -0.652781
v -0.936688 3.011659 -0.106858
v -0.936688 3.011659 -0.453692
v -0.936688 3.277791 -0.106858
v -0.936688 3.277791 -0.453692
v -1.047614 3.011659 -0.106858
v -1.047614 3.011659 -0.453692
v -1.047614 3.277791 -0.106858
v -1.047614 3.277791 -0.453692
v 0.718528 2.856539 -0.655851
v 0.718528 2.856539 0.095300
v 0.718528 3.432912 -0.655851
v 0.718528 3.432912 0.095300
v 0.970299 2.856539 -0.655851
v 0.970299 2.856539 0.095300
v 0.970299 3.432912 -0.655851
v 0.970299 3.432912 0.095300
v 0.970053 3.010702 -0.454939
v 0.970053 3.010702 -0.105611
v 0.970053 3.278748 -0.454939
v 0.970053 3.278748 -0.105611
v 1.083756 3.010702 -0.454939
v 1.083756 3.010702 -0.105611
v 1.083756 3.278748 -0.454939
v 1.083756 3.278748 -0.105611
v -1.006553 -0.731049 0.660849
v -1.006553 0.317072 0.660849
v -1.006553 0.317072 -0.660849
v -1.006553 -0.731049 -0.660849
v -1.288565 -0.731049 0.660849
v -1.288565 0.317072 0.660849
v -1.288565 0.317072 -0.660849
v -1.288565 -0.731049 -0.660849
v 1.000000 0.315752 -0.659184
v 1.000000 -0.729729 -0.659184
v 1.000000 0.315752 0.659184
v 1.000000 -0.729729 0.659184
v 1.308623 0.315752 -0.659184
v 1.308623 -0.729729 -0.659184
v 1.308623 0.315752 0.659184
v 1.308623 -0.729729 0.659184
vn -0.9997 0.0244 -0.0000
vn 0.0000 0.0000 -1.0000
vn 1.0000 0.0000 0.0000
vn -0.0000 -0.0089 1.0000
vn -0.0162 -0.9999 0.0000
vn -0.0327 0.9995 -0.0000
vn 0.0000 0.5515 -0.8342
vn -0.0000 -0.9999 0.0162
vn 0.0162 -0.9999 -0.0000
vn 0.0000 -0.9999 -0.0162
vn 0.0000 0.9982 0.0601
vn 0.0000 -0.5515 0.8342
vn -1.0000 0.0000 0.0000
vn -0.1627 0.9865 -0.0185
vn -0.0000 0.9656 -0.2600
vn 0.1627 0.9865 -0.0185
vn 0.0000 -1.0000 -0.0000
vn 0.9884 0.0000 0.1519
vn 0.0000 0.0000 1.0000
vn -0.9884 0.0000 0.1519
vn 0.9609 -0.0000 -0.2768
vn 0.0000 0.0165 0.9999
vn -0.0091 -0.0000 1.0000
vn 0.0091 0.0000 1.0000
vn -0.0000 0.9226 -0.3859
vn -0.0000 -0.9993 -0.0386
vn -0.9609 0.0000 -0.2768
vn -0.0000 0.9997 0.0229
vn 0.0327 0.9995 0.0000
vn -0.0000 0.9984 -0.0570
vn 0.0000 -0.9991 -0.0431
vn 0.0431 -0.9991 0.0000
vn 0.0000 -0.9991 0.0431
vn -0.0431 -0.9991 -0.0000
vn 0.0000 1.0000 0.0000
vn 1.0000 0.0000 0.0011
vn -0.9999 0.0000 -0.0142
vn 0.0000 0.5836 0.8120
vn 0.0000 -0.5836 -0.8120
vn -0.9999 -0.0000 0.0142
vn -0.9998 -0.0185 -0.0000
vn -0.9998 0.0185 -0.0000
vn -0.9994 -0.0339 0.0000
vn -0.9997 -0.0000 0.0260
vn -0.9997 0.0000 -0.0260
vn -0.9994 0.0339 -0.0000
vn 1.0000 0.0014 0.0000
vn 1.0000 -0.0000 -0.0011
vn 1.0000 -0.0014 -0.0000
vn 1.0000 0.0016 0.0000
vn 1.0000 -0.0016 -0.0000
vn 1.0000 -0.0000 0.0012
vn 1.0000 0.0000 -0.0012
vn -0.9998 -0.0000 -0.0193
vn -0.9997 -0.0244 -0.0000
vn -0.9998 0.0000 0.0193
s off
f 2//1 4//1 95//1 94//1
f 4//2 8//2 7//2 3//2
f 5//3 7//3 102//3 104//3
f 6//4 2//4 26//4 27//4
f 7//5 5//5 12//5 11//5
f 4//6 2//6 33//6 34//6
f 58//7 57//7 15//7 13//7
f 3//8 7//8 11//8 9//8
f 1//9 3//9 9//9 10//9
f 5//10 1//10 10//10 12//10
f 13//11 15//11 19//11 17//11
f 57//3 59//3 16//3 15//3
f 59//12 60//12 14//12 16//12
f 60//13 58//13 13//13 14//13
f 17//2 19//2 23//2 21//2
f 15//14 16//14 20//14 19//14
f 16//15 14//15 18//15 20//15
f 14//16 13//16 17//16 18//16
f 22//17 21//17 23//17 24//17
f 19//18 20//18 24//18 23//18
f 20//19 18//19 22//19 24//19
f 18//20 17//20 21//20 22//20
f 28//21 27//21 31//21 32//21
f 1//22 5//22 28//22 25//22
f 5//23 6//23 27//23 28//23
f 2//24 1//24 25//24 26//24
f 31//19 30//19 29//19 32//19
f 27//25 26//25 30//25 31//25
f 25//26 28//26 32//26 29//26
f 26//27 25//27 29//27 30//27
f 35//2 34//2 38//2 39//2
f 2//28 6//28 36//28 33//28
f 6//29 8//29 35//29 36//29
f 8//30 4//30 34//30 35//30
f 39//31 38//31 42//31 43//31
f 36//3 35//3 39//3 40//3
f 33//19 36//19 40//19 37//19
f 34//13 33//13 37//13 38//13
f 47//2 43//2 50//2 52//2
f 40//32 39//32 43//32 44//32
f 37//33 40//33 44//33 41//33
f 38//34 37//34 41//34 42//34
f 48//35 47//35 46//35 45//35
f 43//36 47//36 79//36 77//36
f 41//19 44//19 48//19 45//19
f 41//37 45//37 63//37 61//37
f 51//35 52//35 56//35 55//35
f 46//2 47//2 52//2 51//2
f 43//2 42//2 49//2 50//2
f 42//2 46//2 51//2 49//2
f 54//2 53//2 55//2 56//2
f 49//13 51//13 55//13 53//13
f 52//3 50//3 54//3 56//3
f 50//17 49//17 53//17 54//17
f 10//13 9//13 58//13 60//13
f 12//38 10//38 60//38 59//38
f 11//3 12//3 59//3 57//3
f 9//39 11//39 57//39 58//39
f 63//35 64//35 68//35 67//35
f 46//40 42//40 62//40 64//40
f 45//41 46//41 64//41 63//41
f 42//42 41//42 61//42 62//42
f 67//43 68//43 72//43 71//43
f 64//2 62//2 66//2 68//2
f 61//19 63//19 67//19 65//19
f 62//17 61//17 65//17 66//17
f 72//2 70//2 74//2 76//2
f 68//44 66//44 70//44 72//44
f 65//45 67//45 71//45 69//45
f 66//46 65//46 69//46 70//46
f 74//13 73//13 75//13 76//13
f 69//19 71//19 75//19 73//19
f 70//17 69//17 73//17 74//17
f 71//35 72//35 76//35 75//35
f 78//17 77//17 81//17 82//17
f 44//47 43//47 77//47 78//47
f 48//48 44//48 78//48 80//48
f 47//49 48//49 80//49 79//49
f 82//50 81//50 85//50 86//50
f 79//35 80//35 84//35 83//35
f 77//2 79//2 83//2 81//2
f 80//19 78//19 82//19 84//19
f 86//17 85//17 89//17 90//17
f 83//51 84//51 88//51 87//51
f 81//52 83//52 87//52 85//52
f 84//53 82//53 86//53 88//53
f 90//3 89//3 91//3 92//3
f 87//35 88//35 92//35 91//35
f 85//2 87//2 91//2 89//2
f 88//19 86//19 90//19 92//19
f 94//35 95//35 99//35 98//35
f 4//54 3//54 96//54 95//54
f 3//55 1//55 93//55 96//55
f 1//56 2//56 94//56 93//56
f 98//13 99//13 100//13 97//13
f 95//2 96//2 100//2 99//2
f 96//17 93//17 97//17 100//17
f 93//19 94//19 98//19 97//19
f 101//35 103//35 107//35 105//35
f 7//3 8//3 101//3 102//3
f 8//3 6//3 103//3 101//3
f 6//3 5//3 104//3 103//3
f 105//3 107//3 108//3 106//3
f 103//19 104//19 108//19 107//19
f 104//17 102//17 106//17 108//17
f 102//2 101//2 105//2 106//2
