# File produced by Open Asset Import Library (http://www.assimp.sf.net)
# (assimp v3.1.161429758)

mtllib dice.mtl

# vertex positions
v 1.000000 1.000000 -1.000000
v -1.000000 1.000000 -1.000000
v -1.000000 1.000000 1.000000
v 1.000000 1.000000 1.000000
v 1.000000 -1.000000 1.000000
v -1.000000 -1.000000 1.000000
v -1.000000 -1.000000 -1.000000
v 1.000000 -1.000000 -1.000000

# UV coordinates
vt 0.625000 0.500000
vt 0.875000 0.500000
vt 0.875000 0.750000
vt 0.625000 0.750000
vt 0.375000 0.750000
vt 0.625000 1.000000
vt 0.375000 1.000000
vt 0.375000 0.000000
vt 0.625000 0.000000
vt 0.625000 0.250000
vt 0.375000 0.250000
vt 0.125000 0.500000
vt 0.375000 0.500000
vt 0.125000 0.750000

# vertex normals
vn -0.000000 1.000000 -0.000000
vn -0.000000 -0.000000 1.000000
vn -1.000000 -0.000000 -0.000000
vn -0.000000 -1.000000 -0.000000
vn 1.000000 -0.000000 -0.000000
vn -0.000000 -0.000000 -1.000000

# Mesh
g Cube
usemtl Material.002
f 4/4/1 1/1/1 2/2/1
f 2/2/1 3/3/1 4/4/1
f 6/7/2 5/5/2 4/4/2
f 4/4/2 3/6/2 6/7/2
f 7/11/3 6/8/3 3/9/3
f 3/9/3 2/10/3 7/11/3
f 6/14/4 7/12/4 8/13/4
f 8/13/4 5/5/4 6/14/4
f 5/5/5 8/13/5 1/1/5
f 1/1/5 4/4/5 5/5/5
f 8/13/6 7/11/6 2/10/6
f 2/10/6 1/1/6 8/13/6
